<svg version="1.1" id="Layer_1" xmlns="http://www.w3.org/2000/svg" xmlns:xlink="http://www.w3.org/1999/xlink" x="0px" y="0px"
	 width="100%" viewBox="0 0 496 496" enable-background="new 0 0 496 496" xml:space="preserve">
<path fill="#000000" opacity="1.000000" stroke="none" 
	d="
M182.398682,240.409225 
	C172.983353,261.805847 174.484528,282.903687 182.278229,303.907806 
	C186.538300,315.388733 192.662659,325.858826 200.693710,335.166260 
	C201.090790,335.626465 201.249466,336.292358 201.546204,336.919647 
	C199.472534,338.114624 198.639786,336.403412 197.637375,335.552460 
	C177.097687,318.116302 165.312927,295.998322 163.182388,269.129913 
	C162.028458,254.577515 165.336807,240.655029 172.084274,227.689667 
	C173.702896,224.579483 174.193375,221.955551 173.320724,218.383530 
	C169.658661,203.393448 173.003021,189.392487 180.301987,176.101471 
	C181.778656,173.412552 183.138779,172.903915 185.665527,175.066666 
	C191.356888,179.938126 191.385452,179.810745 188.356720,186.759048 
	C183.129547,198.750854 182.497131,210.993362 187.460175,223.141464 
	C189.034668,226.995377 189.192032,229.883606 186.535645,233.157135 
	C184.882614,235.194244 183.868668,237.749939 182.398682,240.409225 
z"/>
<path fill="#000000" opacity="1.000000" stroke="none" 
	d="
M319.305511,320.249512 
	C313.984650,326.521942 308.662354,332.270844 301.775391,336.422791 
	C305.346466,330.056488 309.685730,324.278931 313.193481,317.967529 
	C321.668823,302.718048 326.925812,286.511414 326.510712,268.990021 
	C326.191376,255.509460 322.804932,242.663116 314.720825,231.488937 
	C313.230103,229.428406 312.650726,227.691406 313.782471,225.128464 
	C319.633087,211.878845 319.097412,198.635422 313.224548,185.507736 
	C311.045593,180.637207 312.748169,176.352051 317.733063,174.024277 
	C320.604553,172.683380 321.257812,175.178940 322.128479,176.734283 
	C329.457031,189.825790 332.331696,203.740860 329.040588,218.551590 
	C328.341919,221.695786 328.673462,224.181808 330.026428,227.090118 
	C345.403564,260.144470 340.876801,291.027374 319.305511,320.249512 
z"/>
<path fill="#000000" opacity="1.000000" stroke="none" 
	d="
M228.017792,150.735138 
	C250.464264,146.038544 271.792786,148.104752 292.557037,156.495712 
	C292.074707,159.130905 290.445618,159.460159 289.156036,160.049927 
	C275.497406,166.296463 263.362183,174.550751 254.030060,186.526810 
	C252.393112,188.627518 250.796967,190.041870 248.586884,187.095078 
	C239.029633,174.352066 226.210526,165.915207 211.917969,159.440445 
	C211.006592,159.027573 210.070587,158.635574 209.629471,157.024704 
	C215.047729,153.521347 221.478012,152.571655 228.017792,150.735138 
z"/>
<path fill="#000000" opacity="1.000000" stroke="none" 
	d="
M298.621277,160.566559 
	C309.678314,154.872223 320.982086,150.608215 331.990784,144.269409 
	C332.464874,148.706299 330.655457,151.321381 328.971344,153.889450 
	C321.512024,165.263947 310.736664,172.595200 298.735138,178.370056 
	C293.193237,181.036713 287.592926,183.581909 282.021027,186.186356 
	C270.743713,191.457642 260.666870,198.231888 253.493378,208.970184 
	C253.266693,201.957382 255.342743,195.762650 259.313507,190.243973 
	C267.686768,178.606659 279.303894,170.917984 291.627808,164.141876 
	C293.812439,162.940689 296.062286,161.858215 298.621277,160.566559 
z"/>
<path fill="#000000" opacity="1.000000" stroke="none" 
	d="
M248.784912,205.185791 
	C249.132797,206.680969 249.538574,207.817032 248.656418,209.012848 
	C248.256897,208.878296 247.605209,208.864853 247.434906,208.571716 
	C241.108643,197.683563 230.932114,191.513107 220.067978,186.198380 
	C208.144333,180.365311 195.601608,175.706375 185.173508,167.093018 
	C179.721222,162.589569 175.017776,157.521713 171.574890,151.341812 
	C170.557404,149.515442 169.388901,147.632050 170.300766,144.755585 
	C174.689117,146.920166 178.776749,148.983749 182.904556,150.963562 
	C194.888199,156.711212 207.240829,161.725677 218.510773,168.888474 
	C227.112289,174.355316 235.119965,180.516144 241.504639,188.579468 
	C245.303940,193.377701 247.581711,198.832565 248.784912,205.185791 
z"/>
<path fill="#000000" opacity="1.000000" stroke="none" 
	d="
M307.096375,311.995667 
	C303.733551,317.731598 300.199951,322.875641 295.532318,327.654419 
	C293.952454,325.262726 295.612549,323.855316 296.293457,322.417358 
	C303.808411,306.547119 308.380341,290.023987 307.635254,272.291565 
	C307.346863,265.428192 306.154816,258.732056 303.633362,252.327713 
	C300.145630,243.469238 300.103546,243.485809 308.057495,237.361694 
	C320.374420,251.003647 323.395599,283.423096 307.096375,311.995667 
z"/>
<path fill="#000000" opacity="1.000000" stroke="none" 
	d="
M187.394516,293.332672 
	C182.373657,275.911499 182.564240,259.142120 190.186661,242.860641 
	C191.175858,240.747696 191.156952,236.887482 195.043259,237.874893 
	C198.268066,238.694214 201.425568,245.152451 200.213058,247.872437 
	C195.507889,258.427399 193.535110,269.483185 194.412109,280.955292 
	C195.513199,295.359314 199.319626,309.081970 205.622284,322.105011 
	C206.384781,323.680511 207.750732,325.105560 207.163742,328.248016 
	C197.342697,317.971344 191.504791,306.394501 187.394516,293.332672 
z"/>
<path fill="#000000" opacity="1.000000" stroke="none" 
	d="
M245.346344,218.384857 
	C250.984528,212.355682 258.179443,217.388870 259.166656,223.712082 
	C260.447540,231.916077 257.479675,239.115143 253.344345,245.938126 
	C252.372864,247.540985 251.116776,248.353134 249.298523,246.723618 
	C243.431854,241.465897 241.067780,226.037735 245.346344,218.384857 
z"/>
<path fill="#000000" opacity="1.000000" stroke="none" 
	d="
M248.044022,375.921387 
	C245.123550,372.879364 242.850952,369.841614 241.758438,366.055237 
	C240.087616,360.264557 244.152740,351.915741 249.645386,349.822418 
	C250.821045,349.374359 251.972137,349.347565 252.986053,350.042755 
	C257.436066,353.093842 260.765015,356.957672 260.668518,362.678406 
	C260.561707,369.014008 257.010895,373.566010 252.219009,377.231995 
	C250.722580,378.376770 249.411819,377.251190 248.044022,375.921387 
z"/>
<path fill="#000000" opacity="1.000000" stroke="none" 
	d="
M299.015686,202.385986 
	C300.899292,212.991135 298.219116,219.564911 290.909454,222.969543 
	C283.867798,226.249359 274.826294,223.408661 271.003632,216.670502 
	C270.373962,215.560608 269.367523,214.370728 270.338013,213.013992 
	C271.215790,211.786896 272.668884,211.938721 273.982300,211.879883 
	C275.552094,211.809540 276.830322,212.621506 278.180786,213.261612 
	C283.651581,215.854721 288.131592,214.014099 289.549591,208.091705 
	C290.379730,204.624664 292.792389,202.813965 295.123108,200.771210 
	C296.896484,199.216888 298.112793,200.112106 299.015686,202.385986 
z"/>
<path fill="#000000" opacity="1.000000" stroke="none" 
	d="
M204.629608,217.123474 
	C201.450195,211.154205 201.094849,205.560898 204.539108,199.548569 
	C208.397522,201.513977 211.101822,203.926834 212.248062,207.815170 
	C214.161469,214.305878 217.932373,216.118423 223.800278,213.319183 
	C226.529312,212.017319 230.013489,210.233337 231.846741,213.212982 
	C233.436890,215.797531 230.411209,218.388351 228.362335,220.244827 
	C221.270920,226.670319 210.302353,225.643387 204.629608,217.123474 
z"/>
<path fill="#000000" opacity="1.000000" stroke="none" 
	d="
M225.305603,352.142548 
	C227.786255,350.943939 230.120148,348.504364 232.316666,350.593811 
	C234.175888,352.362427 234.327988,355.372375 233.904861,358.061737 
	C233.037415,363.575226 228.835266,369.800995 224.367401,372.297760 
	C219.231110,365.439697 219.468231,357.888397 225.305603,352.142548 
z"/>
<path fill="#000000" opacity="1.000000" stroke="none" 
	d="
M270.094635,350.252747 
	C275.244385,350.075684 278.772186,352.524231 280.546631,356.696259 
	C282.622589,361.577209 280.817200,366.465973 278.995331,371.103882 
	C278.371277,372.692535 277.009674,372.396210 275.704254,371.492279 
	C269.941498,367.501892 267.125885,357.675690 270.094635,350.252747 
z"/>
<path fill="#000000" opacity="1.000000" stroke="none" 
	d="
M214.015076,346.774109 
	C218.267899,345.434845 219.992569,346.533112 218.535553,350.695221 
	C216.594330,356.240509 213.429947,360.918945 208.761154,364.693634 
	C204.614975,358.500793 206.973099,350.670776 214.015076,346.774109 
z"/>
<path fill="#000000" opacity="1.000000" stroke="none" 
	d="
M285.189514,354.611267 
	C284.937805,354.134399 284.848480,353.990356 284.801025,353.833649 
	C284.074249,351.433624 281.458801,348.424194 284.321289,346.717560 
	C286.904572,345.177399 290.056976,347.254150 292.256500,349.311646 
	C295.805725,352.631683 296.273651,359.431366 293.356873,363.979828 
	C289.386414,362.111664 287.490723,358.422119 285.189514,354.611267 
z"/>
</svg>